<mxfile host="app.diagrams.net" modified="2022-01-07T11:35:55.483Z" agent="5.0 (Windows NT 10.0; Win64; x64) AppleWebKit/537.36 (KHTML, like Gecko) Chrome/93.0.4577.63 Safari/537.36" etag="7tR3JWZII9RCJkoOp12j" version="16.1.4" type="github">
  <diagram id="f-Q_C-b3ClG1jmT5Jzzo" name="第 1 页">
    <mxGraphModel dx="1038" dy="539" grid="1" gridSize="10" guides="1" tooltips="1" connect="1" arrows="1" fold="1" page="1" pageScale="1" pageWidth="827" pageHeight="1169" math="0" shadow="0">
      <root>
        <mxCell id="0" />
        <mxCell id="1" parent="0" />
        <mxCell id="N2LXzmNalzWVpS_UWDES-2" style="edgeStyle=orthogonalEdgeStyle;rounded=0;orthogonalLoop=1;jettySize=auto;html=1;" edge="1" parent="1" source="N2LXzmNalzWVpS_UWDES-1">
          <mxGeometry relative="1" as="geometry">
            <mxPoint x="250" y="70" as="targetPoint" />
          </mxGeometry>
        </mxCell>
        <mxCell id="N2LXzmNalzWVpS_UWDES-1" value="Java" style="rounded=0;whiteSpace=wrap;html=1;" vertex="1" parent="1">
          <mxGeometry x="50" y="40" width="120" height="60" as="geometry" />
        </mxCell>
        <mxCell id="N2LXzmNalzWVpS_UWDES-4" style="edgeStyle=orthogonalEdgeStyle;rounded=0;orthogonalLoop=1;jettySize=auto;html=1;" edge="1" parent="1" source="N2LXzmNalzWVpS_UWDES-3">
          <mxGeometry relative="1" as="geometry">
            <mxPoint x="430" y="70" as="targetPoint" />
          </mxGeometry>
        </mxCell>
        <mxCell id="N2LXzmNalzWVpS_UWDES-3" value="Class FIle" style="shape=loopLimit;whiteSpace=wrap;html=1;" vertex="1" parent="1">
          <mxGeometry x="250" y="30" width="100" height="80" as="geometry" />
        </mxCell>
        <mxCell id="N2LXzmNalzWVpS_UWDES-9" style="edgeStyle=orthogonalEdgeStyle;rounded=0;orthogonalLoop=1;jettySize=auto;html=1;entryX=0.537;entryY=-0.017;entryDx=0;entryDy=0;entryPerimeter=0;" edge="1" parent="1" source="N2LXzmNalzWVpS_UWDES-5" target="N2LXzmNalzWVpS_UWDES-7">
          <mxGeometry relative="1" as="geometry" />
        </mxCell>
        <mxCell id="N2LXzmNalzWVpS_UWDES-5" value="类装载器&lt;br&gt;Class Loader" style="rounded=0;whiteSpace=wrap;html=1;" vertex="1" parent="1">
          <mxGeometry x="430" y="40" width="120" height="60" as="geometry" />
        </mxCell>
        <mxCell id="N2LXzmNalzWVpS_UWDES-10" style="edgeStyle=orthogonalEdgeStyle;rounded=0;orthogonalLoop=1;jettySize=auto;html=1;exitX=0.75;exitY=0;exitDx=0;exitDy=0;entryX=0.75;entryY=1;entryDx=0;entryDy=0;" edge="1" parent="1" source="N2LXzmNalzWVpS_UWDES-7" target="N2LXzmNalzWVpS_UWDES-5">
          <mxGeometry relative="1" as="geometry" />
        </mxCell>
        <mxCell id="N2LXzmNalzWVpS_UWDES-19" style="edgeStyle=orthogonalEdgeStyle;rounded=0;orthogonalLoop=1;jettySize=auto;html=1;entryX=0.25;entryY=0;entryDx=0;entryDy=0;" edge="1" parent="1" source="N2LXzmNalzWVpS_UWDES-7" target="N2LXzmNalzWVpS_UWDES-17">
          <mxGeometry relative="1" as="geometry" />
        </mxCell>
        <mxCell id="N2LXzmNalzWVpS_UWDES-22" style="edgeStyle=orthogonalEdgeStyle;rounded=0;orthogonalLoop=1;jettySize=auto;html=1;exitX=0.25;exitY=1;exitDx=0;exitDy=0;entryX=0.75;entryY=0;entryDx=0;entryDy=0;" edge="1" parent="1" source="N2LXzmNalzWVpS_UWDES-7" target="N2LXzmNalzWVpS_UWDES-16">
          <mxGeometry relative="1" as="geometry">
            <Array as="points">
              <mxPoint x="230" y="440" />
            </Array>
          </mxGeometry>
        </mxCell>
        <mxCell id="N2LXzmNalzWVpS_UWDES-7" value="" style="rounded=0;whiteSpace=wrap;html=1;" vertex="1" parent="1">
          <mxGeometry x="110" y="180" width="550" height="260" as="geometry" />
        </mxCell>
        <mxCell id="N2LXzmNalzWVpS_UWDES-8" value="运行时数据区（Runtime Data Area）" style="text;html=1;strokeColor=none;fillColor=none;align=center;verticalAlign=middle;whiteSpace=wrap;rounded=0;" vertex="1" parent="1">
          <mxGeometry x="220" y="190" width="230" height="30" as="geometry" />
        </mxCell>
        <mxCell id="N2LXzmNalzWVpS_UWDES-11" value="方法区&lt;br&gt;Method Area" style="rounded=0;whiteSpace=wrap;html=1;" vertex="1" parent="1">
          <mxGeometry x="140" y="240" width="120" height="60" as="geometry" />
        </mxCell>
        <mxCell id="N2LXzmNalzWVpS_UWDES-12" value="栈Stack" style="rounded=0;whiteSpace=wrap;html=1;" vertex="1" parent="1">
          <mxGeometry x="310" y="240" width="120" height="60" as="geometry" />
        </mxCell>
        <mxCell id="N2LXzmNalzWVpS_UWDES-13" value="本地方法栈&lt;br&gt;Native Method Stack" style="rounded=0;whiteSpace=wrap;html=1;" vertex="1" parent="1">
          <mxGeometry x="480" y="240" width="120" height="60" as="geometry" />
        </mxCell>
        <mxCell id="N2LXzmNalzWVpS_UWDES-14" value="堆 Heap" style="rounded=0;whiteSpace=wrap;html=1;" vertex="1" parent="1">
          <mxGeometry x="150" y="340" width="100" height="70" as="geometry" />
        </mxCell>
        <mxCell id="N2LXzmNalzWVpS_UWDES-15" value="程序计数器" style="rounded=0;whiteSpace=wrap;html=1;" vertex="1" parent="1">
          <mxGeometry x="330" y="345" width="240" height="60" as="geometry" />
        </mxCell>
        <mxCell id="N2LXzmNalzWVpS_UWDES-21" style="edgeStyle=orthogonalEdgeStyle;rounded=0;orthogonalLoop=1;jettySize=auto;html=1;entryX=0.145;entryY=1;entryDx=0;entryDy=0;entryPerimeter=0;" edge="1" parent="1" source="N2LXzmNalzWVpS_UWDES-16" target="N2LXzmNalzWVpS_UWDES-7">
          <mxGeometry relative="1" as="geometry">
            <Array as="points">
              <mxPoint x="190" y="480" />
              <mxPoint x="190" y="480" />
            </Array>
          </mxGeometry>
        </mxCell>
        <mxCell id="N2LXzmNalzWVpS_UWDES-16" value="执行引擎" style="rounded=0;whiteSpace=wrap;html=1;" vertex="1" parent="1">
          <mxGeometry x="140" y="490" width="120" height="60" as="geometry" />
        </mxCell>
        <mxCell id="N2LXzmNalzWVpS_UWDES-20" style="edgeStyle=orthogonalEdgeStyle;rounded=0;orthogonalLoop=1;jettySize=auto;html=1;exitX=0.75;exitY=0;exitDx=0;exitDy=0;entryX=0.656;entryY=1.005;entryDx=0;entryDy=0;entryPerimeter=0;" edge="1" parent="1" source="N2LXzmNalzWVpS_UWDES-17" target="N2LXzmNalzWVpS_UWDES-7">
          <mxGeometry relative="1" as="geometry" />
        </mxCell>
        <mxCell id="N2LXzmNalzWVpS_UWDES-17" value="本地方法接口" style="rounded=0;whiteSpace=wrap;html=1;" vertex="1" parent="1">
          <mxGeometry x="380" y="490" width="120" height="60" as="geometry" />
        </mxCell>
        <mxCell id="N2LXzmNalzWVpS_UWDES-18" value="本地方法库" style="shape=singleArrow;direction=west;whiteSpace=wrap;html=1;" vertex="1" parent="1">
          <mxGeometry x="510" y="490" width="100" height="60" as="geometry" />
        </mxCell>
      </root>
    </mxGraphModel>
  </diagram>
</mxfile>
